<?xml version="1.0" encoding="utf-8"?>
<!-- Generator: Adobe Illustrator 26.0.0, SVG Export Plug-In . SVG Version: 6.00 Build 0)  -->
<svg version="1.1" id="Layer_1" xmlns="http://www.w3.org/2000/svg" xmlns:xlink="http://www.w3.org/1999/xlink" x="0px" y="0px"
	 viewBox="0 0 42.38 42.38" style="enable-background:new 0 0 42.38 42.38;" xml:space="preserve">
<style type="text/css">
	.st0{fill:#1B1464;}
	.st1{enable-background:new    ;}
	.st2{fill:#FFFFFF;}
	.st3{fill:none;stroke:#FFFFFF;stroke-width:2.7052;stroke-linecap:round;stroke-miterlimit:10;}
	.st4{fill:none;stroke:#FFFFFF;stroke-width:2.1909;stroke-linecap:round;stroke-linejoin:round;stroke-miterlimit:10;}
</style>
<path class="st0" d="M21.19,42.38L21.19,42.38C9.49,42.38,0,32.89,0,21.19l0,0C0,9.49,9.49,0,21.19,0l0,0
	c11.7,0,21.19,9.49,21.19,21.19l0,0C42.38,32.89,32.89,42.38,21.19,42.38z"/>
<g>
	<g class="st1">
		<path class="st2" d="M15.66,27.79v-1.22l4.41-0.01v3.86c-0.68,0.54-1.38,0.95-2.09,1.22c-0.72,0.27-1.46,0.41-2.21,0.41
			c-1.02,0-1.95-0.22-2.79-0.66c-0.83-0.44-1.47-1.07-1.89-1.9c-0.43-0.83-0.64-1.75-0.64-2.77c0-1.01,0.21-1.96,0.64-2.83
			c0.42-0.88,1.03-1.53,1.83-1.96s1.71-0.64,2.75-0.64c0.75,0,1.43,0.12,2.04,0.37c0.61,0.24,1.08,0.58,1.43,1.02
			c0.35,0.43,0.61,1,0.79,1.7l-1.24,0.34c-0.16-0.53-0.35-0.95-0.58-1.25c-0.23-0.3-0.56-0.55-0.99-0.73
			c-0.43-0.18-0.91-0.27-1.43-0.27c-0.63,0-1.17,0.1-1.63,0.29s-0.83,0.44-1.11,0.76s-0.5,0.66-0.66,1.03
			c-0.27,0.64-0.4,1.34-0.4,2.09c0,0.93,0.16,1.7,0.48,2.33c0.32,0.62,0.78,1.09,1.39,1.39s1.26,0.45,1.95,0.45
			c0.6,0,1.18-0.11,1.75-0.34c0.57-0.23,1-0.47,1.29-0.73v-1.94H15.66z"/>
		<path class="st2" d="M21.68,26.8c0-1.73,0.46-3.08,1.39-4.06c0.93-0.98,2.12-1.47,3.59-1.47c0.96,0,1.83,0.23,2.6,0.69
			c0.77,0.46,1.36,1.1,1.76,1.92c0.4,0.82,0.61,1.75,0.61,2.79c0,1.05-0.21,2-0.64,2.83c-0.43,0.83-1.03,1.46-1.81,1.89
			c-0.78,0.43-1.62,0.64-2.53,0.64c-0.98,0-1.86-0.24-2.63-0.71c-0.77-0.47-1.36-1.12-1.75-1.94S21.68,27.72,21.68,26.8z
			 M23.1,26.82c0,1.25,0.34,2.24,1.01,2.96c0.67,0.72,1.52,1.08,2.54,1.08c1.04,0,1.89-0.36,2.56-1.09c0.67-0.73,1-1.76,1-3.1
			c0-0.85-0.14-1.59-0.43-2.22c-0.29-0.63-0.71-1.12-1.26-1.47c-0.55-0.35-1.17-0.52-1.86-0.52c-0.97,0-1.81,0.33-2.52,1
			C23.45,24.14,23.1,25.26,23.1,26.82z"/>
	</g>
</g>
<line class="st3" x1="17.13" y1="13.53" x2="27.87" y2="13.53"/>
<polyline class="st4" points="24.8,9.02 28.78,13.45 24.8,17.61 "/>
</svg>
